# xmcd CD database file
#
# Track frame offsets:
#	150
#	21028
#	43295
#	65145
#	87431
#	109926
#	126759
#	147942
#	170972
#	191991
#	212392
#	234140
#	254847
#	276522
#	293057
#
# Disc length: 4121 seconds
#
# Revision: 0
# Processed by: cddbd v1.5.2PL0 Copyright (c) Steve Scherf et al.
# Submitted via: CDex 1.70beta2
#
DISCID=f310170f
DTITLE=Various Artist - WWW.SALSA.SALSA
DYEAR=2000
DGENRE=Salsa
TTITLE0=Que Mas Tu Quieres De Mi - Tito Rojas
TTITLE1=Historia Entre Tus Dedos - Micky Taveras
TTITLE2=Lo Que Yo Mas Qiero - Son by Four
TTITLE3=Mi Primer Amor - Kevin Ceballo
TTITLE4=Como Duele - Victor Manuelle
TTITLE5=Amar es Algo Mas - Pedro Jesus
TTITLE6=Han Cojido La Cosa - Grupo Niche
TTITLE7=Que Me Entieren con Rumba - Sonora Carruselis
TTITLE8=Para Ser Real - Luisito Carrion
TTITLE9=Desde Que No Estas - Rey Ruiz
TTITLE10=Lloran Las Rosas - Dominic
TTITLE11=Almas Gemelas - Gilberto Santa Rosa
TTITLE12=Si No Te Huvieras Ido - Charlie Cruz
TTITLE13=Se Dice De Mi - Yolanda Rayo
TTITLE14=Cuando Seas Mia (Balada Bonus)
EXTD=YEAR: 2000
EXTT0=
EXTT1=
EXTT2=
EXTT3=
EXTT4=
EXTT5=
EXTT6=
EXTT7=
EXTT8=
EXTT9=
EXTT10=
EXTT11=
EXTT12=
EXTT13=
EXTT14=
PLAYORDER=
